<?xml version="1.0" encoding="utf-8"?>
<!-- Generator: Adobe Illustrator 16.0.0, SVG Export Plug-In . SVG Version: 6.00 Build 0)  -->
<!DOCTYPE svg PUBLIC "-//W3C//DTD SVG 1.1//EN" "http://www.w3.org/Graphics/SVG/1.1/DTD/svg11.dtd">
<svg version="1.1" id="Layer_1" xmlns="http://www.w3.org/2000/svg" xmlns:xlink="http://www.w3.org/1999/xlink" x="0px" y="0px"
	 width="1200px" height="1200px" viewBox="0 0 1200 1200" enable-background="new 0 0 1200 1200" xml:space="preserve">
<g>
	<path display="none" fill="#FEFEFD" d="M606,1201c-198.5,0-397-0.012-595.5,0.094c-3.749,0.002-4.594-0.845-4.593-4.594
		c0.099-397,0.099-794,0-1191C5.906,1.751,6.751,0.906,10.5,0.907c397.333,0.099,794.667,0.099,1192,0
		c3.749-0.001,4.594,0.844,4.593,4.593c-0.099,397-0.099,794,0,1191c0.001,3.749-0.844,4.596-4.593,4.594
		C1003.667,1200.988,804.833,1201,606,1201z"/>
	<path fill="#F7F7F7" d="M198.996,909.987c-2.22-6.041-6.836-10.53-10.482-15.583c-20.798-28.825-36.7-60.102-47.44-93.937
		c-5.415-17.057-9.01-34.541-11.24-52.366c-2.295-18.342-3.584-36.722-2.682-55.117c1.021-20.797,3.026-41.527,6.577-62.12
		c3.801-22.046,8.401-43.886,14.032-65.522c6.145-23.61,13.091-46.986,20.671-70.175c11.668-35.692,23.658-71.283,34.946-107.095
		c14.573-46.237,27.681-92.942,43.725-138.709c12.063-34.408,26.107-67.916,47.059-98.121c23.401-33.736,54.796-55.869,94.505-66.38
		c18.797-4.976,37.837-7.726,57.242-9.084c13.492-0.945,26.967-1.129,40.375-0.554c14.343,0.616,28.698,1.813,43.018,3.473
		c21.875,2.536,43.566,6.034,65.119,10.368c26.808,5.391,53.372,11.84,79.569,19.764c19.412,5.872,38.569,12.419,57.326,20.136
		c2.303,0.948,4.541,2.056,6.809,3.088c-0.78,3.017-3.618,2.534-5.66,3.125c-13.864,4.019-26.906,9.511-38.414,18.563
		c-16.517,12.992-22.197,35.735-11.255,53.564c-0.131,5.427-0.636,10.776-3.222,15.694c-0.451,0.296-0.947,0.383-1.474,0.265
		c-0.885-0.67-1.178-1.676-1.024-2.657c0.459-2.95-1.35-3.738-3.686-4.196c-1.465-0.287-2.899-0.72-4.343-1.111
		c-3.049-0.828-4.766-2.813-3.811-5.883c1.302-4.185-0.797-5.716-4.206-6.866c-2.661-0.897-5.344-1.882-7.377-3.997
		c-2.095-3.348-3.105-7.208-5.146-10.611c-2.664-4.448-5.961-7.392-11.53-6.53c-0.625-0.233-1.177-0.588-1.688-1.012
		c-7.74-6.396-10.624-6.344-17.702,0.448c-1.234,1.186-2.434,2.238-4.275,2.115c-6.459-1.665-12.502-4.49-18.765-6.705
		c-5.39-1.905-7.557-1.32-9.971,3.899c-5.364,11.6-8.475,23.729-8.279,36.648c0.067,4.446,2.134,6.149,6.224,6.737
		c8.714,1.251,17.5,2.021,26.152,3.76c5.285,2.593,5.745,7.497,5.463,12.377c-1.227,21.269-2.902,42.514-2.648,63.843
		c0.11,9.163-1.631,18.263-0.99,27.442c1.355,19.418,0.796,38.963,3.883,58.268c0.632,3.953,1.563,7.841,2.391,11.753
		c3.426,16.189,11.993,23.109,30.577,24.496c4.297,0.319,8.67-0.611,12.908,0.774c3.119,2.308,1.78,5.423,1.343,8.252
		c-3.428,22.19-5.637,44.457-5.172,66.959c0.093,4.487,1.62,8.842,0.896,13.352c-1.448,1.637-3.321,1.271-5.117,0.989
		c-17.768-2.783-35.568-5.349-53.495-6.854c-29.145-2.45-58.187-2.85-86.757,4.988c-11.228,3.08-18.805,9.756-23.015,20.854
		c-6.823,17.992-11.382,36.571-15.326,55.313c-11.943,56.762-20.11,114.133-27.199,171.667c-2.646,21.478-5.042,42.983-7.332,64.504
		c-0.436,4.103,0.608,6.265,4.228,7.557c1.756,3.31,1.266,6.758,0.646,10.212c-0.821,2.076-2.754,2.779-4.575,3.55
		c-5.813,2.462-11.524,5.155-17.354,7.58c-5.853,2.435-6.155,3.08-4.797,9.397c-0.677,1.35-2.012,1.691-3.279,2.048
		c-32.421,9.079-49.721,32.228-58.418,63.159c-4.84,17.215-6.955,34.813-7.369,52.741c-0.211,9.143,0.289,18.237,0.173,27.354
		c-0.027,2.109,0.42,4.384-1.37,6.123c-20.367-6.43-39.285-15.947-57.466-27.021c-4.386-2.672-8.775-5.357-12.973-8.308
		c-2.92-2.052-3.568-1.236-3.554,1.926c0.061,13.47,0.021,26.938,0.017,40.406c-2.344-0.268-2.159-2.205-2.351-3.757
		c-0.287-2.315-0.137-4.66-0.137-6.992c-0.004-45.991,0-91.981-0.006-137.974c-0.001-7.773-0.02-7.78-7.725-7.786
		c-7.999-0.006-16,0.122-23.994-0.053c-4.059-0.088-6.91,1.344-9.285,4.647c-8.167,11.365-16.414,22.675-24.763,33.907
		C203.212,907.049,202.204,909.826,198.996,909.987z"/>
	<path fill="#F7F8F8" d="M938.222,312.901c-3.107-0.211-4.358,0.511-2.403,3.774c10.146,16.941,20.28,33.893,30.241,50.943
		c11.806,20.208,23.396,40.543,35.142,60.785c9.414,16.222,18.972,32.36,28.376,48.589c7.74,13.355,15.51,26.701,22.979,40.209
		c9.981,18.051,19.607,36.301,28.471,54.93c14.858,31.236,27.967,63.149,35.491,97.058c3.566,16.07,5.575,32.422,4.365,48.869
		c-1.596,21.701-9.014,41.153-23.305,58.044c-14.332,16.941-32.207,29.136-51.285,39.623c-26.85,14.761-55.207,26.246-84.198,36.078
		c-44.836,15.206-89.77,30.125-134.639,45.233c-7.863,2.646-15.549,5.84-23.453,8.347c-3.439,1.091-2.937,3.45-3.128,5.837
		c-2.708-0.988-2.329-3.436-2.371-5.479c-0.465-22.623-2.159-45.19-3.281-67.779c-1.09-21.916-2.255-43.842-3.502-65.755
		c-0.917-16.099-1.698-32.223-2.438-48.338c-0.718-15.608-1.703-31.22-2.514-46.826c-0.837-16.109-2.104-32.206-2.317-48.346
		c-0.04-2.999-0.132-5.972-0.75-8.906c-0.131-1.513,0.085-3.005,0.566-4.425c7.02-20.664,10.323-41.926,10.341-63.729
		c5.553-8.402,6.277-18.209,7.582-27.71c3.86-28.104,5.181-56.403,4.173-84.726c-0.9-25.313-3.449-50.512-9.521-75.21
		c-0.561-4.47,0.801-8.812,0.916-13.268c0.204-7.833-2.711-13.722-9.323-17.855c-1.396-0.873-2.735-1.843-3.779-3.15
		c-4.806-7.949-9.827-15.659-16.871-21.979c-6.136-5.504-13.145-8.825-21.001-10.774c-2.018-0.5-4.391-0.469-5.616-2.71
		c-1.093-4.134-0.537-8.325-0.474-12.499c1.411-5.324,4.482-9.799,7.382-14.368c8.123-3.292,16.583-3.348,25.063-2.253
		c16.342,2.109,31.645,7.887,46.873,13.807c28.284,10.992,56.687,21.591,86.597,27.458c8.997,1.765,18.063,3.045,27.15,4.224
		C935.469,310.845,937.598,310.463,938.222,312.901z"/>
	<path fill="#010101" d="M938.222,312.901c-11.107-1.82-22.261-3.405-33.313-5.505c-29.232-5.556-56.887-16.157-84.527-26.785
		c-15.286-5.878-30.572-11.742-46.945-14.109c-8.567-1.239-16.878-0.08-25.205,1.606c-5.509-1.498-7.907-8.141-4.543-12.863
		c1.36-1.908,2.854-3.626,3-6.154c0.268-4.629-1.313-7.327-5.777-8.618c-2.523-0.729-4.554-1.864-6.129-3.968
		c-5.729-7.65-13.235-12.166-22.673-14.295c-12.501-2.821-21.771-9.763-24.95-23.217c-2.072,2.486-1.395,6.697-4.982,8.183
		c-5.131-4.249-5.588-10.366-6.074-16.248c-1.492-18.089,6.989-31.222,21.233-41.285c11.678-8.25,24.782-13.23,38.547-16.682
		c0.775-0.195,1.498-0.6,2.245-0.907c7.57-0.975,15.022-2.695,22.697-3.053c18.629-0.865,36.168,4.193,53.661,9.54
		c19.302,5.899,38.94,9.71,59.162,10.497c22.326,0.869,43.388-5.049,64.383-11.494c17.759-5.452,35.551-10.812,54.077-13.042
		c22.217-2.675,44.223-1.848,65.52,5.618c29.694,10.41,45.7,32.417,51.223,62.593c3.261,17.813,3.918,35.783-1.289,53.394
		c-7.404,25.033-24.845,41.077-47.898,51.644c-20.316,9.311-41.945,13.29-64.065,15.271
		C976.45,314.735,957.343,313.839,938.222,312.901z"/>
	<path fill="#F7F8F8" d="M612.994,985.951c-5.905-0.711-10.436,3.064-15.513,4.92c-19.373,7.076-38.555,14.688-58.491,20.127
		c-2.026-2.268-1.376-5.063-1.329-7.643c0.356-19.507-0.595-38.916-4.024-58.154c-3.309-18.561-9.068-36.135-20.545-51.453
		c-9.841-13.135-22.769-21.748-38.404-26.364c-7.814-2.308-7.894-2.366-8.081-10.631c-0.077-3.42,0.988-6.996-0.976-10.245
		c-0.546-0.625-1.064-1.267-1.416-2.025c-0.887-3.321-0.974-6.642,0.046-9.952c5.176-2.265,6.888-6.899,8.744-11.807
		c27.092-71.64,54.147-143.293,81.456-214.85c2.645-6.933,3.554-7.178,9.36-2.665c23.517,18.279,49.96,31.08,77.71,41.394
		c7.954,2.957,15.962,5.79,24.14,8.108c2.224,0.631,4.526,1.256,6.079,3.226c4.502,11.654,7.171,23.858,10.549,35.843
		c11.414,40.488,22.678,81.021,34.047,121.523c4.045,14.407,7.946,28.855,12.096,43.234c0.463,1.604,0.884,3.212,0.546,4.901
		c-0.766,2.751-3.067,2.717-5.229,2.771c-4.492,0.112-9.021,0.376-13.474-0.044c-5.672-0.535-9.191,1.799-12.45,6.309
		c-20.077,27.786-40.375,55.413-60.658,83.05c-6.497,8.854-12.815,17.843-19.476,26.576
		C616.477,983.707,615.667,986.03,612.994,985.951z"/>
	<path fill="#D2D3D3" d="M466.977,845.01c2.588,4.993,0.648,10.328,1.115,15.485c0.21,2.32,0.3,3.899,3.215,4.611
		c29.688,7.238,47.313,27.166,57.234,55.012c5.938,16.667,8.17,33.98,9.648,51.545c1.106,13.138,0.38,26.229,0.801,39.335
		c-0.999,9.037-1.625,18.135-3.069,27.1c-3.968,24.621-11.096,48.047-29.688,65.986c-13.102,12.642-29.37,18.803-47.352,20.974
		c-15.841,1.911-31.475,1.232-46.822-3.097c-20.804-5.867-36.633-18.262-47.165-37.216c-10.514-18.922-15.295-39.458-16.938-60.864
		c-0.202-2.636-0.653-5.252-0.989-7.877c0.01-7.295-1.037-14.688-0.611-21.825c0.681-11.4-0.198-22.883,1.678-34.224
		c2.458-14.862,5.042-29.627,10.688-43.768c10.627-26.611,28.9-44.401,57.096-51.326c0.436-0.106,0.785-0.564,1.175-0.858
		c2.051-1.962,4.662-1.532,7.108-1.546c11.661-0.068,23.323,0.019,34.985-0.05c5.833-0.034,6.119-0.498,6.373-6.245
		C465.625,852.415,464.474,848.45,466.977,845.01z"/>
	<path fill="#3093D1" d="M728.223,863.889c-5.189-18.884-10.328-37.781-15.582-56.647c-13.854-49.764-27.759-99.513-41.644-149.268
		c2.447-1.777,4.875-0.435,7.15,0.273c12.837,3.993,26.099,6.01,39.388,5.992c16.174-0.021,31.823-3.272,45.002-13.833
		c8.817-7.066,14.918-16.018,18.904-26.527c0.713-1.879,0.749-4.413,3.481-4.938c1.807,8.358,1.232,16.907,1.752,25.351
		c1.8,29.211,2.953,58.461,4.425,87.693c1.641,32.552,3.363,65.1,5.044,97.649c1.327,25.74,2.644,51.482,3.976,77.224
		c0.076,1.479-0.126,3.019,0.756,4.362c0.242,19.621,1.691,39.186,2.76,58.768c0.733,13.443,1.45,26.89,2.114,40.338
		c0.778,15.772,1.524,31.55,2.18,47.329c0.065,1.588,1.174,3.802-1.505,4.61c-6.688,2.514-13.588,0.935-20.394,1.067
		c-0.581-0.09-1.146-0.267-1.687-0.501c-2.317-1.27-2.664-3.688-3.318-5.89c-3.229-10.841-6.089-21.788-9.235-32.652
		c-10.022-36.249-20.301-72.428-30.26-108.694c-4.298-15.287-8.55-30.587-12.915-45.854
		C728.05,867.763,728.178,865.85,728.223,863.889z"/>
	<path fill="#D2D3D3" d="M198.996,909.987c10.331-13.984,20.696-27.943,30.952-41.983c1.395-1.908,2.804-3.035,5.275-3.017
		c10.979,0.08,21.961,0.194,32.936-0.04c4.769-0.103,3.854,2.964,3.855,5.651c0.015,48.907,0,97.814,0.043,146.723
		c0.001,1.903-0.755,4.024,0.936,5.688l-0.002-0.002c10.379,1.137,20.793,0.168,31.184,0.53c2.939,0.103,5.933-0.577,8.815,0.516
		c-0.005,15.327-0.146,30.656,0.078,45.98c0.059,4.026-1.206,5.109-5.104,5.021c-10.49-0.243-20.992,0.048-31.484-0.155
		c-3.551-0.067-4.56,1.129-4.514,4.586c0.169,12.992-0.036,25.989,0.135,38.981c0.045,3.487-1.047,4.587-4.547,4.556
		c-16.492-0.155-32.987-0.166-49.479,0c-4,0.038-5.183-1.442-5.128-5.284c0.175-12.326-0.125-24.66,0.165-36.981
		c0.105-4.503-1.059-5.921-5.767-5.895c-36.484,0.199-72.97,0.015-109.454,0.223c-4.915,0.028-5.809-1.511-6.081-6.154
		c-0.504-8.595,2.002-15.386,7.196-22.355c31.037-41.653,61.61-83.651,92.314-125.553
		C193.968,917.408,196.442,913.668,198.996,909.987z"/>
	<path fill="#D2D3D3" d="M728.223,863.889c4.847,17.08,9.691,34.159,14.536,51.238c1.814,33.919,0.396,67.865,0.798,101.796
		c0.05,4.104,1.663,5.636,5.675,5.522c5.655-0.161,11.322-0.08,16.983-0.018c2.311,0.026,4.709-0.203,6.655,1.5
		c3.718,12.698,7.437,25.396,11.154,38.093c0.62,3.208-0.028,6.485,0.543,9.698c0.016,0.521-0.101,1.011-0.334,1.477
		c-2.428,1.887-4.882,3.695-8.253,2.69c-3.603-1.988-7.481-0.702-11.22-0.852c-5.987-0.24-12.003,0.137-17.987-0.14
		c-3.706-0.17-4.909,0.978-4.847,4.766c0.216,12.826-0.036,25.66,0.157,38.485c0.057,3.645-0.887,4.934-4.728,4.888
		c-16.659-0.194-33.323-0.178-49.983-0.01c-3.619,0.037-4.492-1.272-4.451-4.642c0.154-12.828-0.099-25.662,0.155-38.486
		c0.08-4.061-1.262-5.018-5.121-5.004c-36.655,0.129-73.313-0.011-109.968,0.186c-4.765,0.024-5.86-1.271-6.227-6.031
		c-0.708-9.213,2.37-16.282,7.896-23.539c14.873-19.526,28.945-39.662,43.335-59.557c14.036-19.048,28.096-38.076,42.102-57.146
		c14.8-20.146,29.559-40.324,44.302-60.512c1.706-2.337,3.731-3.44,6.735-3.335c5.812,0.204,11.635,0.083,17.451,0.045
		C725.196,864.994,726.962,865.436,728.223,863.889z"/>
	<path fill="#040404" d="M775.98,1075.887c2.74-1.014,5.481-2.026,8.225-3.041c7.552-2.307,15.115-2.165,22.688-0.102
		c0.95,0.219,1.97,0.281,1.961,1.692c-0.026,4.979-0.052,9.959,0.02,14.938c0.029,2.135-1.201,2.384-2.885,2.382
		c-15.603-0.021-31.202-0.013-46.805-0.01c-1.543,0-3.227,0.078-3.005-2.183c0.206-2.098-1.086-4.571,2.145-5.869
		C764.291,1081.299,770.104,1078.512,775.98,1075.887z"/>
	<path fill="#DC8E69" d="M806.893,1072.744c-7.563,0.034-15.129,0.068-22.689,0.103c0.019-0.261-0.01-0.517-0.084-0.767
		c0.078-3.271-0.737-6.597,0.603-9.789c7.233-0.009,14.467-0.018,21.701-0.025C806.58,1065.759,806.736,1069.252,806.893,1072.744z"
		/>
	<path fill="#F7F7F7" d="M312.99,1024.053c-11.609-0.024-23.218-0.021-34.827-0.104c-1.744-0.014-3.688,0.662-5.172-0.941
		c11.624-0.003,23.247-0.036,34.871,0.022C309.596,1023.038,311.563,1022.327,312.99,1024.053z"/>
	<path fill="#1B6FA2" d="M784.924,618.94c-3.989,10.828-8.931,21.101-17.541,29.131c-11.415,10.646-25.231,15.508-40.551,16.982
		c-19.172,1.847-37.521-2.38-55.835-7.081c-15.875-5.374-31.905-10.305-47.304-17.021c-22.328-9.74-43.838-20.898-62.739-36.481
		c-3.908-3.222-3.943,0.228-4.705,2.23c-18.414,48.416-36.785,96.848-55.146,145.284c-9.769,25.77-19.565,51.527-29.178,77.354
		c-1.277,3.431-2.973,5.286-6.704,4.83c-7.298,2.146-14.596,2.298-21.893-0.003c-6.558-0.356-6.389-0.34-5.669-7.482
		c3.743-37.11,8.053-74.156,13.325-111.08c7.733-54.16,15.5-108.325,29.887-161.256c2.05-7.542,4.819-14.839,7.581-22.151
		c3.859-10.221,11.221-16.115,21.405-19.191c16.246-4.907,32.955-6.484,49.785-6.902c27.05-0.671,53.833,2.4,80.53,6.382
		c5.593,0.833,11.176,1.734,16.763,2.605c1.423-0.26,2.57,0.439,3.756,1.05c36.093,18.613,74.786,28.322,114.782,33.636
		c4.803,0.638,9.591,0.88,14.417,0.883c1.794,0.001,3.713-0.186,5.088,1.425c1.669,1.448,1.044,3.388,0.988,5.131
		c-0.619,19.269-3.544,38.143-9.745,56.453C785.643,615.376,785.35,617.181,784.924,618.94z"/>
	<path fill="#FED285" d="M794.979,552.083c-17.418,0.693-34.395-2.519-51.268-6.151c-27.158-5.846-53.725-13.625-78.798-25.874
		c-2.821-1.378-5.718-2.673-7.979-4.968c-1.111-3.494-1.818-7.055-1.939-10.732c-0.806-24.499,1.591-48.748,5.629-72.872
		c0.271-1.608,0.886-3.268-0.419-4.745c0.091-1.957,1.72-1.8,2.917-1.944c19.202-2.317,37.154-8.844,54.871-16.185
		c2.457-1.019,4.854-2.189,7.41-2.956c2.244-0.269,3.11,1.635,4.383,2.851c7.089,6.78,10.515,7.302,19.205,3.159
		c13.25-6.317,23.228-16.575,32.88-27.207c4.947-5.449,9.101-11.467,12.221-18.181c0.72-1.547,1.334-3.59,3.81-3.235
		c4.245,15.058,6.408,30.502,7.941,46.003c2.113,21.343,2.896,42.79,1.967,64.216c-1.024,23.682-2.178,47.398-7.817,70.587
		C799.201,547.097,798.259,550.321,794.979,552.083z"/>
	<path fill="#DD8D68" d="M726.121,406.029c-11.057,6.192-23.054,10.047-35.021,13.915c-10.064,3.252-20.371,5.582-30.897,6.798
		c-9.175,0.655-18.281,0.795-27.109-2.545c-7.979-3.02-13.466-8.275-16.087-16.521c-3.504-11.024-4.973-22.404-5.925-33.845
		c-2.545-30.603-1.8-61.253-0.81-91.887c0.463-14.304,1.709-28.579,2.486-42.874c0.229-4.178-0.385-8.195-4.313-10.796
		c-2.604-13.602-2.69-27.063,2.283-40.229c0.813-2.146,1.354-4.504,3.608-5.768c0.519-0.403,1.123-0.731,1.544-1.22
		c7.758-8.97,13.535-8.997,21.121-0.071c3.707,1.539,4.398,5.123,5.589,8.336c0.746,2.013,0.733,4.236,1.599,6.235
		c3.036,11.583,2.584,23.068-0.969,34.466c-1.615,3.932-0.662,7.855,0.078,11.766c7.52,39.688,15.313,79.323,22.429,119.086
		c1.481,8.284,1.477,8.285,9.258,4.752c7.543-1.86,14.517-5.335,21.862-7.754c1.693-0.557,3.299-1.598,5.223-1.125
		c3.903,5.156,4.597,11.651,7.181,17.382c4.323,9.584,9.242,18.771,15.21,27.415C725.379,402.875,726.635,404.142,726.121,406.029z"
		/>
	<path fill="#DC8E6C" d="M682.174,207.176c1.677-3.92,3.354-7.84,5.525-12.915c2.133,16.987,12.557,24.53,27.039,27.281
		c9.236,1.755,15.378,7.447,20.91,14.227c1.585,1.942,3.245,2.813,5.703,3.355c6.651,1.468,9.262,9.791,5.022,15.145
		c-4.253,5.373-3.736,9.233,1.853,13.841c-1.078,4.829-4.533,8.488-6.365,12.948c-6.291,11.691-16.332,16.136-29.206,15.124
		c-15.233-3.222-22.962-14.379-28.589-27.484c-5.688-13.25-7.201-27.243-6.397-41.546c0.085-1.519,0.215-2.996,1.368-4.15
		C680.083,217.725,681.128,212.45,682.174,207.176z"/>
	<path fill="#F7F8F8" d="M679.037,223c-0.549,14.162-0.123,28.189,4.915,41.715c2.931,7.869,6.787,15.139,12.653,21.21
		c4.486,4.644,9.84,7.827,16.233,9.114c2.058,2.089,1.548,4.59,1.146,7.073c-0.542,1.835-1.876,3.125-3.221,4.348
		c-9.751,8.875-16.642,19.769-22.385,31.493c-1.453,2.966-2.678,6.198-6.444,7.105c-1.146,0.278-2.311,0.345-3.478,0.344
		c-5.377-0.003-6.732-1.026-7.572-6.465c-1.066-6.91-2.219-13.806-3.415-20.694c-4.438-25.59-9.197-51.123-13.69-76.702
		c-0.398-2.271-1.082-4.563-0.457-6.91c0.523-1.242,1.637-1.657,2.813-1.617c2.194,0.076,3.318-0.919,3.835-3.003
		c0.938-3.788,3.54-4.382,6.895-3.384c0.79,0.235,1.626,0.33,2.403,0.599c3.212,1.108,5.861,1.078,6.845-2.985
		c0.192-0.797,0.807-1.439,1.829-1.258C678.309,222.988,678.673,222.994,679.037,223z"/>
	<path fill="#010101" d="M614.337,182.277c-2.122,6.545-4.813,12.854-5.639,19.857c-0.903,7.665-0.523,15.132,0.875,22.633
		c0.258,1.381,1.21,2.976-1.134,3.506c-9.197-1.199-18.395-2.448-27.605-3.575c-4.062-0.497-6.149-2.311-6.15-6.707
		c-0.003-14.178,3.352-27.516,9.596-40.163c1.935-3.918,4.638-5.492,9.243-3.485C600.321,177.308,607.385,179.663,614.337,182.277z"
		/>
	<path fill="#020202" d="M677.944,222.982c-2.678,7.083-2.724,7.24-10.5,4.981c-3.706-1.077-6.115-1.188-6.505,3.575
		c-0.44,5.375-4.697,1.442-6.901,2.605c-3.55,1.94-7.07,0.331-10.546-0.232c-2.063-0.335-2.283-2.066-1.66-3.87
		c3.593-11.606,3.714-23.306,0.947-35.084c0.26-2.088,1.79-1.653,2.952-1.268c2.932,0.972,6.013,1.733,8.159,4.241
		c3.166,1.376,6.24,3.057,9.522,4.047c3.572,1.079,4.92,2.971,3.369,6.365c-1.735,3.799-0.588,5.572,3.463,5.823
		c0.635,0.04,1.236,0.589,1.871,0.629C677.454,215.135,680.292,217.197,677.944,222.982z"/>
	<path fill="#030303" d="M466.977,845.01c0.104,4.976,0.061,9.957,0.366,14.919c0.193,3.142-1.037,3.942-4.001,3.915
		c-13.797-0.128-27.596-0.072-41.394-0.062c-1.651,0.001-3.302,0.144-4.953,0.221c-2.917-2.749-2.869-6.661,0.312-8.065
		c8.579-3.788,17.239-7.394,25.868-11.069c7.333-2.329,14.67-2.245,22.013-0.047C465.784,844.884,466.38,844.947,466.977,845.01z"/>
	<path fill="#DD8E68" d="M465.187,844.82c-7.339,0.016-14.678,0.03-22.015,0.047c0.052-3.566,0.103-7.133,0.155-10.699
		c7.299,0.001,14.596,0.002,21.894,0.003C465.21,837.721,465.199,841.271,465.187,844.82z"/>
	<path fill="#D17B59" d="M653.892,197.933c-3.907-0.229-6.784-4.31-11.111-2.975c-1.259-4.934-2.488-9.878-5.777-13.973
		c4.168-2.179,7.368-0.682,10.025,2.692C650.366,187.918,652.734,192.637,653.892,197.933z"/>
	<path fill="#FED792" d="M726.121,406.029c-11.037-14.805-18.932-31.165-24.199-48.828c-4.53-6.557-3.021-14.311,3.71-18.417
		c7.176-4.378,15.207-6.722,23.212-8.833c14.836-3.913,29.943-5.835,45.332-4.25c3.824,0.394,7.532,1.244,10.917,3.175
		c3.182,2.865,7.369,4.414,10.082,7.917c4.806,6.202,4.456,13.279,3.426,20.385c-0.282,1.954-0.604,3.893-0.699,5.866
		c-4.323,4.488-5.695,10.771-9.628,15.556c-10.695,13.014-22,25.228-37.101,33.39C739.832,418.118,735.236,416.648,726.121,406.029z
		"/>
	<path fill="#FED286" d="M785.093,328.876c-5.55,0.162-10.724-2.075-16.375-2.106c-7.898-0.044-15.712,0.149-23.521,1.242
		c-10.686,1.495-21.162,4.04-31.064,8.196c-13.121,5.507-14.937,6.465-12.208,20.99c-7.957,3.075-15.918,6.138-23.864,9.234
		c-0.866,0.339-1.559,0.389-2.136-0.431c-1.336-2.017-0.114-3.869,0.521-5.655c1.991-5.609,4.187-11.146,6.643-16.574
		c2.276-1.166,2.865-3.528,3.849-5.565c6.44-13.352,14.232-25.701,25.863-35.238c2.761,2.963,1.461,6.633,1.62,9.998
		c0.289,6.111,0.802,6.686,6.739,7.667c4.697,0.778,9.291,0.039,13.914-0.388c3.763-0.347,5.553-2.459,5.479-6.328
		c-0.085-4.491-0.084-8.987,0.024-13.479c0.047-1.953-0.228-4.06,1.591-5.528c15.386,1.74,26.82,9.958,35.752,22.078
		C780.657,320.708,783.581,324.386,785.093,328.876z"/>
	<path fill="#D17B58" d="M742.165,294.913c-0.051,6.973-0.233,13.948-0.091,20.917c0.063,3.023-0.998,4.632-3.923,5.299
		c-7.018,1.602-14.033,1.879-21.106,0.427c-3.134-0.643-4.313-2.414-4.156-5.646c0.207-4.303-0.039-8.627-0.092-12.94
		c0.016-2.643,0.028-5.286,0.043-7.93c12.639,1.492,21.46-4.938,29.021-13.982C741.963,285.676,742.063,290.294,742.165,294.913z"/>
	<path fill="#F7F8F8" d="M408.046,1029.006c-0.655-3.91-1.609-7.797-1.915-11.734c-1.791-23.073-1.47-46.065,3.986-68.703
		c2.035-8.443,5.317-16.44,11.046-23.203c13.309-15.71,36.538-13.286,46.952,4.827c6.093,10.599,8.602,22.176,9.907,34.146
		c1.35,12.384,2.687,24.818,1.798,37.241c-0.631,8.83,0.029,17.86-2.788,26.479c-6.188-0.453-12.194,1.127-18.293,1.666
		c-12.548,1.109-25.089,2.161-37.698,1.75C416.604,1031.33,412.079,1031.396,408.046,1029.006z"/>
	<path fill="#FFFFFF" d="M408.046,1029.006c8.084,0.779,16.183,1.335,24.306,0.979c13.522-0.596,27.04-1.264,40.393-3.736
		c1.727-0.32,3.787-0.979,4.287,1.812c-0.923,13.028-4.759,25.084-13.058,35.273c-9.94,12.205-32.211,11.411-42.339-0.77
		C413.459,1052.729,409.983,1041.239,408.046,1029.006z"/>
	<path fill="#FFFFFF" d="M772.87,1023.929c-8.996,0.013-17.993-0.04-26.988,0.073c-2.659,0.034-3.919-0.647-3.913-3.614
		c0.073-34.318,0.045-68.639,0.082-102.957c0.001-0.769,0.463-1.534,0.709-2.304c9.946,35.616,19.896,71.232,29.83,106.852
		C772.766,1022.606,772.78,1023.277,772.87,1023.929z"/>
	<path fill="#FEFFFF" d="M784.721,1062.291c-0.303,3.256,0.642,6.59-0.603,9.789c-1.87-3.336-1.742-6.69-0.094-10.059
		C784.267,1062.084,784.499,1062.174,784.721,1062.291z"/>
	<path fill="#FFFFFF" d="M213.008,965.983c0,18.135-0.01,36.271,0.013,54.404c0.002,2.04-0.249,3.598-2.884,3.587
		c-12.751-0.05-25.503-0.021-39.434-0.021c14.211-20.021,27.783-39.142,41.354-58.26
		C212.374,965.79,212.691,965.887,213.008,965.983z"/>
	<path fill="#FFFFFF" d="M682.979,964.968c0,19.148-0.046,37.28,0.048,55.411c0.016,2.952-1.232,3.646-3.9,3.624
		c-11.487-0.093-22.976-0.022-34.464-0.063c-1.075-0.005-2.48,0.542-3.113-0.839c-0.396-0.865,0.494-1.461,0.959-2.117
		c12.74-18.019,25.471-36.042,38.226-54.051C681.086,966.433,681.673,966.097,682.979,964.968z"/>
	<path fill="#D17B58" d="M683.085,343.774c1.437,1.297,0.162,2.444-0.254,3.584c-2.273,6.226-4.6,12.433-6.908,18.646
		c-0.45,0.484-0.82,1.098-1.363,1.432c-7.025,4.33-8.136,3.859-9.683-4.213c-6.923-36.135-13.973-72.247-20.604-108.435
		c-1.244-6.789-3.437-13.484-3.276-20.512c0.031-1.45-0.467-3.026,0.837-4.233c-0.34,2.235,0.854,2.788,2.847,2.941
		c3.133,0.24,6.241,0.761,9.36,1.163c5.168,29.1,10.352,58.195,15.491,87.3c1.068,6.05,2.252,12.102,2.862,18.204
		c0.396,3.955,2.087,5.067,5.715,4.429C679.734,343.793,681.424,343.865,683.085,343.774z"/>
</g>
</svg>
