<?xml version="1.0" encoding="utf-8"?>
<!-- Generator: Adobe Illustrator 16.0.0, SVG Export Plug-In . SVG Version: 6.00 Build 0)  -->
<!DOCTYPE svg PUBLIC "-//W3C//DTD SVG 1.1//EN" "http://www.w3.org/Graphics/SVG/1.1/DTD/svg11.dtd">
<svg version="1.1" id="Layer_1" xmlns="http://www.w3.org/2000/svg" xmlns:xlink="http://www.w3.org/1999/xlink" x="0px" y="0px"
	 width="1200px" height="1496px" viewBox="0 0 1200 1496" enable-background="new 0 0 1200 1496" xml:space="preserve">
<g>
	<path fill-rule="evenodd" clip-rule="evenodd" fill="#FEFEFE" d="M1204,202c0,430.5-0.006,861,0.093,1291.5
		c0.001,3.749-0.843,4.598-4.593,4.595C1067.667,1497.981,935.833,1498,804,1498c-0.303-0.637-0.245-1.24,0.162-1.813
		c4.322-3.858,5.337-8.784,5.325-14.397c-0.104-47.393-0.064-94.785-0.051-142.178c0.001-2.82-0.197-5.658,0.433-8.441
		c0.655-2.366,2.42-3.96,4.114-5.536c34.526-32.109,57.487-71.76,75.282-114.86c18.315-44.359,30.624-90.516,41.745-137.058
		c5.497-23.005,10.604-46.096,15.651-69.198c5.263-24.084,10.301-48.22,15.831-72.244c5.866-25.485,11.966-50.907,18.649-76.204
		c9.576-36.246,20.197-72.185,30.571-108.196c7.422-25.764,15.209-51.432,22.054-77.351c10.122-38.332,19.907-76.765,25.453-116.111
		c3.373-23.941,5.433-48.004,4.331-72.175c-1.309-28.707-6.605-56.584-20.405-82.227c-13.296-24.706-32.344-44.25-55.103-60.338
		c-26.221-18.534-55.162-31.431-85.485-41.638c-28.849-9.711-58.46-15.941-88.429-20.755c-1.667-0.268-3.35-0.451-4.099-2.333
		c-0.77-2.261-0.63-4.601-0.631-6.918c-0.015-34.701-0.015-69.402,0-104.103c0.002-2.317-0.144-4.658,0.63-6.901
		c1.512-2.823,3.961-1.848,6.166-1.382c25.907,5.469,51.818,10.921,77.71,16.463c42.827,9.166,85.666,18.271,128.497,27.417
		c41.854,8.936,83.738,17.729,125.554,26.84c5.104,1.112,9.323,0.41,13.731-2.238c11.704-7.031,23.567-13.799,35.47-20.492
		C1199.228,202.468,1201.227,200.448,1204,202z"/>
	<path fill-rule="evenodd" clip-rule="evenodd" fill="#FFFEFE" d="M4,869C4,581.61,4.009,294.22,3.901,6.83
		C3.899,2.947,4.439,1.874,8.667,1.878C153.778,2.024,298.889,2,444,2c0.01,2.591-2.281,3.035-3.886,3.983
		c-12.77,7.541-26.275,13.717-39.172,21.025c-4.449,2.521-4.472,2.728-1.135,6.391c10.424,11.443,20.727,22.997,31.258,34.345
		c2.735,2.947,5.86,4.695,9.746,5.584c27.119,6.201,54.376,11.758,81.565,17.63c33.865,7.314,67.745,14.561,101.627,21.796
		c2.167,0.463,5.674,0.311,5.734,2.863c0.072,3.016-3.544,2.982-5.869,3.469c-42.55,8.917-85.033,18.146-127.561,27.167
		c-18.738,3.975-37.486,7.902-56.202,11.983c-3.24,0.707-5.76,2.12-7.947,4.686c-10.045,11.785-19.958,23.685-30.145,35.347
		c-2.679,3.066-1.715,4.51,1.338,5.907c7.279,3.329,14.035,7.667,21.258,11.098c6.778,3.219,13.211,7.08,19.889,10.482
		c2.625,1.337,5.233,1.799,8.188,1.168c57.176-12.211,114.356-24.403,171.539-36.584c44.638-9.51,89.269-19.054,133.922-28.497
		c8.474-1.792,16.967-3.493,25.425-5.362c2.263-0.5,4.563-1.24,6.728,0.36c1.277,1.764,1.029,3.816,1.03,5.794
		c0.021,34.666,0.027,69.332,0.003,103.998c-0.006,7.193-0.572,7.528-7.887,6.793c-15.731-1.581-31.517-2.326-47.301-3.208
		c-13.328-0.745-26.642-1.097-39.946-0.745c-26.953,0.714-53.848,2.415-80.667,5.453c-24.033,2.722-47.87,6.595-71.461,11.753
		c-27.516,6.016-54.736,13.232-81.317,22.715c-29.7,10.596-58.729,22.723-86.777,37.156
		c-47.028,24.199-90.643,53.491-130.934,87.746c-10.027,8.525-19.988,17.119-29.316,26.418c-1.178,1.175-2.375,2.357-4.075,2.778
		c-3.023-0.017-3.531-2.69-4.682-4.579c-11.615-19.049-27.553-32.693-48.954-39.719c-44.072-14.471-91.555,7.058-109.454,50.005
		c-13.123,31.487-6.771,71.191,18.994,96.184c9.261,8.984,19.504,16.043,31.493,20.672c1.853,0.716,3.827,1.218,5.369,2.6
		c1.749,2.089,0.26,3.714-0.807,5.363c-16.834,26.011-32.261,52.812-45.561,80.818c-16.177,34.067-29.233,69.241-38.418,105.863
		c-5.393,21.5-9.438,43.223-11.977,65.215c-0.683,5.915-1.485,11.874-1.406,17.89C6.273,865.692,7.111,868.309,4,869z"/>
	<path fill-rule="evenodd" clip-rule="evenodd" fill="#FFFFFF" d="M797,1498c-262.833,0-525.667-0.009-788.5,0.094
		c-3.749,0.001-4.596-0.845-4.594-4.594C4.013,1301,4,1108.5,4,916c2.823,0.551,2.241,2.927,2.361,4.731
		C8.968,959.74,17.152,997.6,30.99,1034.096c5.17,13.637,8.678,27.139,7.433,41.75c-0.279,3.281-0.435,6.664,0.517,9.93
		c1.28,11.236,1.951,22.548,4.074,33.688c0.938,4.924,2.263,9.729,3.924,14.451c5.705,16.216,16.057,22.198,33.399,19.306
		c2.951-0.492,5.831-1.434,8.859-1.431c2.168,0.056,3.792,1.126,5.008,2.837c4.815,6.775,10.073,13.229,14.606,20.212
		c0.824,3.016,4.017,5.006,3.702,8.524c-1.94,25.052-3.745,50.101-5.179,75.185c-1.34,23.449-2.003,46.888-1.769,70.36
		c0.048,4.822,0.308,9.652,2.181,14.196c1.792,2.204,4.295,1.489,6.54,1.49c64.312,0.033,128.624,0.071,192.936-0.048
		c5.984-0.011,11.418,1.045,16.835,3.626c28.475,13.563,57.795,25.016,88.082,33.831c35.742,10.403,72.16,17.54,109.207,21.306
		c25.225,2.564,50.581,3.265,75.843,1.995c39.878-2.003,79.139-8.2,117.051-21.424c24.498-8.546,47.767-19.545,69.334-34.035
		c0.276-0.186,0.542-0.392,0.83-0.557c1.691-0.965,3.328-3.063,5.275-2.17c2.292,1.051,1.668,3.773,1.67,5.869
		c0.049,42.652,0.024,85.305,0.037,127.958c0.001,2.496-0.127,4.999,0.203,7.476c0.546,3.648,3.235,5.846,5.627,8.246
		C797.413,1497.154,797.327,1497.597,797,1498z"/>
	<path fill-rule="evenodd" clip-rule="evenodd" fill="#2B84BC" d="M789.953,156.834c-15.464,3.155-30.949,6.205-46.387,9.483
		c-69.873,14.838-139.732,29.74-209.596,44.621c-27.295,5.813-54.594,11.605-81.872,17.5c-2.434,0.526-4.493,0.381-6.697-0.783
		c-14.877-7.855-29.773-15.674-44.724-23.389c-2.841-1.466-3.654-2.418-1.131-5.297c10.866-12.4,21.528-24.983,32.087-37.647
		c2.092-2.509,4.471-3.633,7.527-4.282c62.432-13.266,124.849-26.6,187.268-39.927c1.073-0.229,2.42,0.028,2.996-1.815
		c-16.116-3.455-32.177-6.907-48.242-10.339c-45.435-9.706-90.857-19.472-136.323-29.031c-7.263-1.527-13.037-4.515-17.964-10.343
		c-9.674-11.442-19.939-22.395-30.205-33.319c-2.841-3.023-1.79-3.889,1.205-5.445c14.321-7.439,28.543-15.072,42.786-22.662
		C441.841,3.541,442.896,2.724,444,2c1.667,0,3.333,0,5,0c48.262,8.116,95.803,19.752,143.725,29.526
		c33.448,6.821,66.812,14.048,100.21,21.114c32.744,6.927,65.511,13.746,98.225,20.805c6.535,2.155,13.074,2.134,19.619,0.021
		c25.217-5.538,50.5-10.755,75.753-16.112c82.118-17.42,164.261-34.732,246.347-52.306C1139.211,3.693,1145.646,3.138,1152,2
		c1.333,0,2.667,0,4,0c7.315,2.472,13.505,7.068,20.115,10.837c8.229,4.691,16.392,9.505,24.635,14.175
		c1.341,0.76,2.467,1.664,3.25,2.988c0,0.333,0,0.667,0,1c-13.459,14.323-27.564,28.006-41.58,41.772
		c-3.498,3.436-8.357,4.779-13.089,5.818c-36.273,7.962-72.614,15.613-108.922,23.419c-19.537,4.201-39.06,8.467-58.603,12.641
		c-3.165,0.676-6.363,1.998-9.236,0.86c6.046,0.905,12.501,2.279,18.954,3.666c53.568,11.507,107.13,23.04,160.703,34.522
		c5.087,1.09,9.21,3.257,12.918,6.937c10.988,10.903,21.405,22.399,33.262,32.415c2.296,1.939,4.287,4.185,5.593,6.95
		c0,0.667,0,1.333,0,2c-4.846,0.994-8.563,4.229-12.716,6.551c-10.604,5.927-21.104,12.044-31.548,18.249
		c-2.896,1.721-5.552,2.209-8.938,1.482c-76.589-16.43-153.202-32.744-229.814-49.065c-36.232-7.72-72.472-15.412-108.711-23.101
		c-0.475-0.101-0.991-0.005-1.488-0.001c-6.21,0.117-12.472-0.681-18.588,1.079C791.425,157.229,790.694,156.997,789.953,156.834z"
		/>
	<path fill-rule="evenodd" clip-rule="evenodd" fill="#F3F3F3" d="M37.79,1086.009c-1.75-5.855-1.244-11.949-0.619-17.747
		c1.22-11.318-2.955-21.192-6.718-31.239c-9.256-24.71-16.326-49.979-20.549-76.058c-2.299-14.198-4.894-28.334-4.959-42.783
		C4.941,917.453,4.329,916.728,4,916c0-15.667,0-31.333,0-47c2.445-5.125,1.221-10.745,1.704-16.055
		c2.194-24.092,6.535-47.742,12.305-71.19c8.185-33.261,19.696-65.324,33.822-96.515c12.077-26.667,26.022-52.308,41.238-77.279
		c3.354-5.506,7.032-10.818,10.681-16.137c0.68-0.992,0.813-1.713,0.244-2.663c2.04-1.72,4.172-0.517,6.165-0.029
		c13.19,3.234,26.365,3.103,39.585,0.204c6.107-1.339,6.756-0.684,5.822,5.557c-4.568,30.532,2.18,58.16,21.087,82.715
		c3.167,4.112,7.189,7.404,10.501,11.365c5.368,4.705,11.015,9.051,17.173,12.648c3.52,2.055,5.255,4.715,5.092,8.854
		c-0.39,9.916,0.618,19.86-0.563,29.76c-0.818,1.89-2.61,2.466-4.33,3.017c-21.854,7.005-37.495,21.784-50.324,40.11
		c-1.309,1.869-2.186,4.146-4.483,5.175c-2.079,0.369-3.443-1.015-4.89-2.079c-10.34-7.602-20.856-6.586-31.35-0.505
		c-12.135,7.031-20.774,17.655-28.461,29.003c-20.218,29.843-34.108,62.446-41.745,97.698c-0.92,4.245-1.117,8.58-1.818,12.853
		c-0.667,4.058,0.423,7.592,3.911,10.144c2.235,1.635,3.893,3.645,3.958,6.609c-1.278,11.924-3.375,23.729-4.779,35.632
		c-3.905,33.1-5.733,66.295-5.058,99.626C39.546,1080.396,40.334,1083.582,37.79,1086.009z"/>
	<path fill-rule="evenodd" clip-rule="evenodd" fill="#FFFFFF" d="M1152,2c-11.52,3.622-23.453,5.424-35.222,7.931
		c-92.136,19.622-184.292,39.148-276.444,58.689c-9.751,2.067-19.521,4.043-29.282,6.061c-1.9-1.876-1.487-4.317-1.503-6.595
		c-0.067-9.318-0.017-18.637-0.033-27.955c-0.004-2.164,0.021-4.336-0.587-6.441c-1.286-4.445-5.179-7.266-9.252-6.73
		c-4.146,0.544-6.936,3.535-7.076,8.307c-0.319,10.811-0.028,21.63-0.157,32.445c-0.029,2.405,0.611,5.078-1.74,6.943
		C689.066,53.169,587.426,31.698,485.796,10.183C473.504,7.58,461.063,5.637,449,2C683.333,2,917.667,2,1152,2z"/>
	<path fill-rule="evenodd" clip-rule="evenodd" fill="#FFFFFF" d="M1204,200c-5.158-3.149-8.819-7.953-13.09-12.058
		c-9.487-9.121-18.72-18.509-27.974-27.871c-2.183-2.207-4.53-3.605-7.644-4.272c-59.672-12.779-119.322-25.656-178.975-38.525
		c-1.559-0.336-3.407-0.034-4.527-1.966c33.346-7.174,66.593-14.335,99.844-21.478c26.467-5.685,52.96-11.247,79.385-17.119
		c4.422-0.982,8.564-2.892,12.039-6.428c12.025-12.24,24.357-24.179,36.642-36.163c1.245-1.214,2.166-3.06,4.3-3.121
		C1204,87.333,1204,143.667,1204,200z"/>
	<path fill-rule="evenodd" clip-rule="evenodd" fill="#FFFFFF" d="M1204,30c-16.281-8.852-32.386-18.005-48-28
		c15,0,30.001,0.068,44.999-0.067c2.503-0.023,3.124,0.56,3.069,3.068C1203.887,13.331,1204,21.667,1204,30z"/>
	<path fill-rule="evenodd" clip-rule="evenodd" fill="#FFE7B9" d="M797,1498c0.046-0.33,0.041-0.66-0.015-0.989
		c2.389-1.829,4.757-1.86,7.105,0.075c-0.052,0.303-0.082,0.607-0.091,0.914C801.667,1498,799.333,1498,797,1498z"/>
	<path fill-rule="evenodd" clip-rule="evenodd" fill="#F3F3F3" d="M811.051,275.994c13.214,0.073,25.796,4.026,38.609,6.459
		c23.322,4.428,46.068,11.093,68.269,19.457c29.97,11.291,58.364,25.62,83.31,45.985c17.518,14.302,32.399,31.089,43.01,51.141
		c10.488,19.821,16.324,41.136,18.915,63.491c1.845,15.917,2.401,31.843,1.641,47.74c-0.606,12.678-1.884,25.358-3.54,38.013
		c-2.362,18.064-5.443,35.965-9.344,53.715c-5.475,24.912-11.475,49.707-18.476,74.25c-6.309,22.117-12.021,44.408-18.624,66.435
		c-10.47,34.925-20.639,69.934-30.154,105.125c-6.871,25.414-13.494,50.899-18.815,76.71c-3.274,15.879-7.335,31.595-10.811,47.435
		c-3.864,17.609-7.31,35.311-11.225,52.907c-3.591,16.143-7.729,32.162-11.332,48.302c-5.744,25.731-12.289,51.281-20.026,76.448
		c-10.982,35.726-23.977,70.695-41.882,103.741c-15.425,28.47-34.652,53.788-58.293,75.826c-0.359,0.334-0.823,0.557-1.237,0.832
		c-1.515-1.384-1.521-3.258-1.618-5.083c-0.107-1.998-0.057-3.999-0.057-5.998c-0.001-343.95-0.005-687.9,0.047-1031.849
		C809.417,283.354,808.362,279.365,811.051,275.994z"/>
	<path fill-rule="evenodd" clip-rule="evenodd" fill="#FFDA8F" d="M811.051,275.994c-0.043,1.998-0.123,3.995-0.123,5.992
		c-0.006,347.342-0.006,694.685-0.001,1042.026c0,1.998,0.076,3.995,0.117,5.993c-0.042,49.711-0.085,99.423-0.127,149.134
		c-0.003,2.66,0.099,5.325-0.026,7.979c-0.221,4.678-2.107,8.301-6.8,9.967c-2.368-0.024-4.736-0.049-7.104-0.074
		c-3.276-1.286-5.273-3.68-6.124-7.066c-0.653-1.782-0.33-3.634-0.331-5.45c-0.021-44.33,0.262-88.662-0.06-132.989
		c-2.576-356.258-0.598-712.521-0.766-1068.78c-0.02-41.094,0.2-82.23,0.813-123.342c0.015-0.99-0.132-2.009,0.439-2.918
		c6.576-2.025,13.171-3.028,19.829-0.35c0.042,37.297,0.083,74.595,0.135,111.893C810.926,270.669,811.006,273.332,811.051,275.994z
		"/>
	<path fill-rule="evenodd" clip-rule="evenodd" fill="#F2F2F2" d="M790.958,156.464c-0.012,87.833-0.032,175.665-0.032,263.497
		c0,354.662,0.006,709.325,0.006,1063.987c0,1.999-0.044,3.998-0.068,5.997c-1.54-1.73-0.83-3.831-0.832-5.753
		c-0.044-43.666-0.034-87.332-0.034-130.998c0-1.768,0.001-3.535,0.001-5.903c-12.514,8.552-24.718,16.264-37.713,22.459
		c-18.431,8.786-37.514,15.874-57.194,21.587c-17.546,5.094-35.393,8.551-53.33,11.262c-11.879,1.796-23.984,2.728-36.047,3.617
		c-17.151,1.266-34.273,0.827-51.385,0.619c-15.034-0.183-30.018-1.996-45.003-3.613c-24.574-2.653-48.708-7.417-72.682-13.161
		c-33.351-7.989-65.607-19.233-96.922-33.191c-7.118-3.173-14.238-6.349-21.268-9.712c-2.4-1.147-4.807-1.144-7.297-1.144
		c-66.333,0.001-132.665,0.01-198.997-0.043c-2.046-0.002-4.367,0.914-6.133-1.03c2.784-2.167,6.068-1.463,9.167-1.464
		c99.983-0.036,199.965-0.03,299.948-0.03c12.093,0,12.094,0,9.853-12.029c-7.446-39.969-15.223-79.874-22.58-119.859
		c-0.422-2.294-0.949-4.573-0.849-6.927c0.067-4.105,2.724-5.633,6.253-6.595c32.775-8.929,65.545-17.878,98.318-26.813
		c51.892-14.147,103.792-28.264,155.651-42.53c12.684-3.489,25.383-6.922,38.069-10.4c6.581-1.805,6.692-1.853,6.693-8.888
		c0.009-49.795,0-99.59,0.018-149.385c0-2.819-0.275-5.668,0.509-8.442c0.393-1.122,1.093-2.055,1.975-2.82
		c10.854-9.427,14.493-21.813,14.612-35.631c0.053-6.132,0.241-12.259-1.376-18.295c-2.323-8.672-5.881-16.561-13.035-22.398
		c-0.902-0.736-1.622-1.662-2.078-2.765c-0.852-2.598-0.58-5.284-0.582-7.938c-0.018-29.991-0.008-59.982-0.015-89.974
		c-0.002-5.684-0.082-5.762-5.609-4.246c-63.786,17.486-127.627,34.771-191.415,52.251c-26.189,7.177-52.411,14.237-78.592,21.443
		c-2.246,0.617-4.506,1.25-6.881,0.931c-2.19-0.281-3.294-2.041-4.691-3.437c-15.649-15.621-32.078-30.27-51.269-41.536
		c-5.185-3.044-10.662-5.354-16.26-7.448c-2.841-1.211-4.88-3.438-6.963-5.584c-16.191-16.683-35.468-28.459-57.327-36.156
		c-2.014-0.709-4.239-1.147-5.325-3.364c-1.194-8.945-0.501-17.923-0.403-26.886c0.039-3.562,2.939-4.438,5.739-5.274
		c10.766-3.211,20.855-7.873,29.981-14.459c25.204-18.189,40.585-42.511,43.821-73.547c2.769-26.553-3.125-51.272-19.206-73.09
		c-17.239-23.39-40.379-37.022-68.918-41.785c-15.379-2.567-30.457-1.345-45.283,3.37c-1.425,0.453-2.823,1.004-4.272,1.372
		c-4.47,1.133-5.521,0.35-5.219-4.142c0.953-14.181-1.401-27.803-6.635-40.985c-0.763-1.921-2.217-3.838-1.007-6.129
		c6.226-4.74,11.413-10.619,17.211-15.835c18.263-16.429,37.299-31.858,57.142-46.311c17.453-12.711,35.382-24.721,54.013-35.632
		c25.264-14.796,51.219-28.219,78.221-39.651c19.277-8.162,38.813-15.549,58.658-22.166c20.142-6.716,40.725-11.757,61.377-16.624
		c16.108-3.795,32.346-6.948,48.652-9.503c15.164-2.376,30.446-4.188,45.788-5.446c16.356-1.341,32.724-2.185,49.095-3.155
		c14.486-0.859,28.964-1.114,43.368-0.52c20.824,0.859,41.728,1.314,62.409,4.313c3.39,0.491,3.214-1.101,3.215-3.221
		c0.005-10.831,0.008-21.661,0.002-32.492c-0.012-26.66-0.028-53.319-0.043-79.979C790.288,156.711,790.623,156.587,790.958,156.464
		z"/>
	<path fill-rule="evenodd" clip-rule="evenodd" fill="#010101" d="M210.846,463.056c5.929,13.68,9.618,27.835,9.045,42.882
		c-0.1,2.617-0.334,5.228-0.536,8.279c6.9-1.915,13.321-4.277,20.127-5.443c31.006-5.312,58.798,2.006,83.643,20.878
		c7.782,5.911,14.979,12.577,19.95,21.228c-4.498,3.723-10.125,2.935-15.239,3.275c-18.641,1.239-36.887-1.051-54.359-8.01
		c-3.422-1.362-4.73-0.449-5.371,3.11c-4.474,24.87-11.976,48.789-23.217,71.457c-9.219,18.589-20.474,35.83-35.03,50.725
		c-5.807,5.941-11.366,12.172-18.059,17.199c-1.62,1.216-3.154,2.561-5.39,1.533c-16.643-15.77-27.48-34.798-31.854-57.349
		c-2.753-14.196-2.43-28.426,0.554-43.405c-17.276,4.801-34.237,4.267-51.116-0.256c-23.927-8.01-42.062-22.892-53.799-45.359
		c-27.428-52.502,5.647-118.873,63.768-128.934c41.006-7.098,79.085,13.914,96.012,47.059
		C210.188,462.342,210.552,462.681,210.846,463.056z"/>
	<path fill-rule="evenodd" clip-rule="evenodd" fill="#2C77A7" d="M402.895,1204.199c3.173,17.482,6.257,34.981,9.54,52.442
		c5.308,28.243,10.66,56.479,16.213,84.675c0.954,4.845-1.992,3.808-4.466,3.808c-43.454,0.009-86.908-0.01-130.362-0.013
		c-60.436-0.005-120.872,0-181.307-0.009c-2.162,0-4.323-0.105-6.484-0.162c-1.396-4.827-1.808-9.797-1.916-14.776
		c-0.834-38.777,1.715-77.424,4.527-116.06c0.699-9.613,1.454-19.223,2.197-28.832c0.101-1.304-0.061-2.695,1.024-3.735
		c1.396-0.352,2.621,0.199,3.821,0.768c21.91,10.357,45.43,14.703,69.119,18.23c16.411,2.444,32.894,4.412,49.495,5.203
		c2.946,0.141,5.969,0.459,8.707,1.845c1.726,1.954,1.348,4.371,1.365,6.66c0.057,7.984,0.146,15.973-0.034,23.954
		c-0.083,3.671,0.884,4.614,4.622,3.577c33.179-9.204,66.387-18.304,99.559-27.533c15.865-4.414,31.79-8.61,47.618-13.155
		C399.237,1200.194,402.501,1199.123,402.895,1204.199z"/>
	<path fill-rule="evenodd" clip-rule="evenodd" fill="#E59E75" d="M37.79,1086.009c0.067-15.15-0.279-30.315,0.288-45.446
		c1.201-32.063,4.201-63.973,9.631-95.624c0.225-1.311,0.308-2.646,0.457-3.969c1.389-2.568,3.418-1.568,5.181-0.741
		c24.643,11.553,51.102,15.719,77.733,19.191c3.801,0.495,7.666-0.158,11.458,0.565c1.138,0.222,2.244,0.568,3.422,0.67
		c7.479,0.645,7.84,1.025,6.234,8.619c-4.939,23.345-11.392,46.265-19.542,68.699c-0.676,1.86-1.602,3.659-1.743,5.698
		c1.227,0.957,2.255,0.043,3.214-0.366c21.955-9.358,44.686-16.542,67.352-23.883c3.844-1.244,5.163-3.126,5.302-7.098
		c0.55-15.722,5.476-29.69,17.25-40.753c5.473-5.143,11.838-8.556,18.986-10.652c30.526-6.489,52.259,19.904,54.252,46.161
		c0.906,11.935-0.765,23.328-6.327,34.367c-7.937,15.753-26.22,29.251-47.223,24.562c-2.903-1.053-5.125,0.289-7.304,1.997
		c-28.729,22.521-58.75,43.125-90.49,61.204c-13.471,7.674-27.317,14.516-41.793,20.077c-4.662,1.505-9.108,3.844-14.201,3.678
		c-6.08,0.797-12.04,2.201-18.267,2.252c-11.11,0.093-18.687-4.924-23.449-14.673c-4.661-9.541-6.771-19.808-8.121-30.216
		C39.043,1102.259,38.537,1094.118,37.79,1086.009z"/>
	<path fill-rule="evenodd" clip-rule="evenodd" fill="#FFDA8F" d="M103.91,1148.165c22.417-8.604,43.144-20.48,63.447-33.107
		c23.81-14.809,46.739-30.894,68.697-48.355c1.837-1.461,3.83-4.242,6.919-1.853c1.644,1.941,1.635,4.301,1.637,6.638
		c0.024,43.313,0.034,86.625-0.019,129.938c-0.003,2.286,0.269,4.733-1.736,6.526c-36.813-2.701-73.52-6.132-109.05-16.992
		c-7.628-2.331-15.155-5.052-21.942-9.42c-2.508-1.473-3.449-3.887-3.952-6.563C104.751,1166.311,103.028,1157.433,103.91,1148.165z
		"/>
	<path fill-rule="evenodd" clip-rule="evenodd" fill="#F3F2F2" d="M103.91,1148.165c1.333,8.937,2.667,17.874,4.001,26.811
		c-4.876-6.486-9.796-12.939-14.588-19.485c-0.925-1.264-1.656-2.49-3.396-2.524C94.587,1151.365,99.249,1149.766,103.91,1148.165z"
		/>
	<path fill-rule="evenodd" clip-rule="evenodd" fill="#FFDA8F" d="M790.703,74.654c0.07-12.661,0.138-25.321,0.213-37.981
		c0.041-7.114,3.669-11.492,9.578-11.579c5.9-0.086,10.346,4.764,10.404,11.597c0.109,12.663,0.108,25.327,0.153,37.99
		C804.266,77.17,797.483,77.094,790.703,74.654z"/>
	<path fill-rule="evenodd" clip-rule="evenodd" fill="#FFD98E" d="M242.905,962.034c-23.615,7.854-34.55,28.815-34.779,51.138
		c-0.046,4.515-1.46,6.015-5.727,7.374c-24.062,7.664-48.117,15.402-71.341,25.438c-0.725,0.313-1.486,0.545-3.069,1.118
		c2.351-6.54,4.614-12.323,6.517-18.222c6.521-20.217,12.516-40.568,16.768-61.425c0.99-4.856-0.108-6.053-4.585-5.537
		c-1.286,0.148-2.691,0.271-3.775-0.804c2.869-2.502,6.35-1.363,9.572-1.502c6.024-0.26,7.417-1.178,9.567-6.827
		c5.583-14.664,7.383-30.068,8.381-45.531c0.545-8.45,1.664-16.902,1.156-25.423c-1.389-23.282-2.725-46.553-10.566-68.859
		c-2.339-6.653-5.36-12.895-9.217-18.782c-1.209-1.846-3.213-3.614-1.879-6.287c13.929-22.313,31.904-39.635,57.957-46.998
		c1.867,1.665,1.54,3.935,1.566,6.047c0.086,6.813-0.031,13.627,0.055,20.439c0.075,5.93,1.49,7.843,7.08,9.99
		c3.918,1.506,8.023,2.262,12.165,2.523c14.262,0.903,28.536,1.669,42.667-1.435c8.476-1.861,10.063-3.847,10.096-12.579
		c0.019-4.985-0.059-9.972,0.037-14.956c0.041-2.106-0.318-4.389,1.631-6.007c13.435,4.833,26.518,10.385,38.458,18.365
		c9.271,6.196,17.838,13.211,25.571,21.253c1.477,1.536,3.216,2.82,4.834,4.221c8.29,7.108,14.101,16.204,20.022,25.182
		c6.504,9.862,11.674,20.471,16.747,31.112c1.006,2.109,2.767,4.374,0.633,6.881c-7.833,3.386-16.206,4.977-24.373,7.192
		c-37.107,10.071-74.13,20.449-111.266,30.413c-9.391,2.52-9.384,2.549-9.384,12.435c-0.001,17.646,0.02,35.291-0.022,52.937
		C244.397,957.367,244.873,959.975,242.905,962.034z"/>
	<path fill-rule="evenodd" clip-rule="evenodd" fill="#E59E75" d="M283.182,744.93c-0.05,7.83-0.11,15.661-0.146,23.491
		c-0.029,6.607-1.224,8.611-7.58,10.49c-4.588,1.356-9.364,2.743-14.086,2.856c-13.767,0.328-27.621,1.494-41.239-1.768
		c-2.249-0.539-4.447-1.351-6.601-2.208c-3.985-1.587-5.761-4.344-5.625-8.896c0.278-9.321,0.019-18.659-0.02-27.991
		c0.038-10.792,0.006-21.586,0.168-32.377c0.036-2.345-0.862-3.616-2.796-4.69c-6.829-3.796-12.927-8.625-18.853-13.671
		c4.479-1.038,7.167-4.65,10.294-7.47c31.655-28.542,51.514-64.257,63.289-104.819c2.961-10.202,5.494-20.513,7.06-31.035
		c0.426-2.861,0.871-4.47,4.624-2.911c23.054,9.577,46.946,11.358,71.402,6.949c10.256,12.739,16.34,27.468,18.752,43.41
		c5.822,38.477-5.247,71.369-34.321,97.68c-11.525,10.43-24.988,17.625-39.934,21.853c-3.229,0.914-4.693,2.013-4.563,5.635
		C283.315,727.939,283.154,736.438,283.182,744.93z"/>
	<path fill-rule="evenodd" clip-rule="evenodd" fill="#FFE4AD" d="M149.929,787.903c1.128,3.929,4.236,6.671,6.091,10.166
		c6.999,13.189,10.778,27.326,13.07,42.025c2.661,17.062,4.508,34.216,3.732,51.421c-0.952,21.118-1.995,42.331-9.617,62.511
		c-1.821,4.82-4.304,7.574-9.817,7.049c-3.458-0.329-6.98,0.003-10.474,0.039c-31.377-1.396-61.865-6.834-90.654-19.966
		c-1.378-0.629-2.67-1.48-4.096-0.177c-0.186-1.626-1.086-2.843-2.466-3.547c-5.599-2.862-6.126-7.736-5.51-13.201
		c2.191-19.442,8.025-37.912,15.279-55.938c8.957-22.262,19.731-43.579,34.686-62.533c8.098-10.263,17.087-19.537,29.736-24.164
		c9.465-3.463,18.285-2.014,26.264,4.227C147.299,786.71,148.154,788.142,149.929,787.903z"/>
	<path fill-rule="evenodd" clip-rule="evenodd" fill="#E0E0E0" d="M242.905,962.034c0.01-21.98,0.104-43.962-0.05-65.942
		c-0.027-3.829,1.097-5.35,4.944-6.385c46.473-12.504,92.883-25.242,139.307-37.929c0.961-0.263,1.893-0.632,2.838-0.952
		c0.568-1.123,1.545-1.742,2.709-2.032c10.15-2.533,20.028-6.13,30.401-7.793c9.049-0.521,17.426-3.947,26.029-6.268
		c46.721-12.602,93.354-25.529,140.04-38.26c35.171-9.591,70.377-19.054,105.569-28.571c0.16-0.044,0.331-0.048,0.489-0.097
		c4.074-1.262,9.166-4.566,12.095-2.37c2.532,1.899,0.69,7.815,0.699,11.949c0.065,30.817,0.048,61.634,0.057,92.45
		c-0.879,0.723-1.906,0.597-2.852,0.325c-10.045-2.884-16.441,1.403-22.738,10.938c-3.822,5.789-5.779,12.412-6.573,19.223
		c-1.544,13.254-0.881,26.291,5.831,38.313c4.775,8.553,12.225,15.793,23.974,12.123c0.789-0.246,1.65-0.175,2.358,0.408
		c-0.009,53.612-0.076,107.225,0.081,160.837c0.013,4.545-1.486,6.067-5.769,7.217c-38.074,10.224-76.065,20.762-114.092,31.164
		c-27.64,7.561-55.297,15.057-82.946,22.584c-33.083,9.008-66.154,18.056-99.265,26.953c-2.585,0.694-3.039,2.162-3.145,4.279
		c-0.668-3.958-3.361-2.602-5.565-1.994c-45.965,12.674-91.92,25.385-137.876,38.092c-4.006,1.108-8.049,2.109-11.99,3.417
		c-3.315,1.1-4.59,0.681-4.509-3.312c0.219-10.812-0.032-21.633-0.098-32.451c0.038-47.7,0.078-95.4,0.117-143.102
		c12.75,2.12,24.363-0.103,34.517-8.608c10.62-8.896,16.504-20.508,18.205-33.88c2.078-16.338-0.763-31.828-11.656-45.011
		c-9.929-12.016-22.337-17.934-38.148-15.483C244.911,962.019,243.901,961.982,242.905,962.034z"/>
	<path fill-rule="evenodd" clip-rule="evenodd" fill="#E59E75" d="M708.03,951.165c-12.649,4.419-22.074,0.545-28.354-13.44
		c-8.78-19.555-8.66-39.345,2.198-58.284c6.204-10.82,14.63-13.606,26.156-9.604c10.117,7.047,14.706,17.408,16.337,29.038
		c2.313,16.484,1.11,32.454-9.701,46.329C712.784,947.619,710.247,949.187,708.03,951.165z"/>
	<path fill-rule="evenodd" clip-rule="evenodd" fill="#FDC88F" d="M423.053,841.001c-2.214,2.418-5.422,2.197-8.215,2.997
		c-8.271,2.369-16.592,4.566-24.894,6.829c-9.254-21.79-21.1-41.997-36.585-59.987c-0.527-0.612-0.879-1.375-1.313-2.07
		c12.092,3.293,22.236,10.291,32.155,17.479C398.321,816.48,411.192,828.198,423.053,841.001z"/>
</g>
</svg>
